<svg width="117" height="36" viewBox="0 0 117 36" fill="none" xmlns="http://www.w3.org/2000/svg">
<path d="M6.80394 35.5319C5.21994 35.5319 3.71994 34.9439 2.30394 33.7679C0.767937 32.5439 -6.30021e-05 31.1759 -6.30021e-05 29.6639C-6.30021e-05 29.4959 0.0479371 29.4119 0.143937 29.4119C0.215937 29.4119 0.275937 29.5079 0.323937 29.6999L0.863937 31.1039C1.87194 33.0719 3.64794 34.0559 6.19194 34.0559C7.72794 34.0559 9.22794 33.6719 10.6919 32.9039C13.8359 31.2479 16.2839 28.8719 18.0359 25.7759C18.5879 24.7919 19.1759 23.4839 19.7999 21.8519C20.4239 20.2199 21.0719 18.2759 21.7439 16.0199C22.0559 14.9399 22.4519 13.5959 22.9319 11.9879C23.4119 10.3559 23.9639 8.47193 24.5879 6.33593L21.5639 7.09193C21.4199 8.65193 21.1679 10.2959 20.8079 12.0239C21.1439 11.7359 21.4319 11.5919 21.6719 11.5919C21.8639 11.5919 21.9599 11.7119 21.9599 11.9519C21.9599 12.7679 21.3479 13.6799 20.1239 14.6879C19.6439 16.4399 19.0919 18.1079 18.4679 19.6919C17.8439 21.2759 17.1479 22.7999 16.3799 24.2639C14.3159 28.0799 12.1319 30.6239 9.82794 31.8959C8.79594 32.4959 7.91994 32.7959 7.19994 32.7959C6.98394 32.7959 6.87594 32.7119 6.87594 32.5439C6.87594 32.4239 6.97194 32.3399 7.16394 32.2919C7.95594 32.1479 8.59194 31.9679 9.07194 31.7519C11.3759 30.6719 13.5599 28.2119 15.6239 24.3719C16.3919 22.9559 17.0879 21.4679 17.7119 19.9079C18.3599 18.3239 18.9359 16.6799 19.4399 14.9759C18.9119 14.3519 18.6479 13.6319 18.6479 12.8159C18.6479 11.8559 18.8999 11.3759 19.4039 11.3759C19.6919 11.3759 19.9439 11.6399 20.1599 12.1679C20.5679 10.4639 20.8559 8.81993 21.0239 7.23593C12.4319 9.77993 8.13594 13.6319 8.13594 18.7919C8.13594 20.3279 8.67594 21.5159 9.75594 22.3559C10.7399 23.1479 12.0119 23.5439 13.5719 23.5439C13.6919 23.5439 13.8839 23.5319 14.1479 23.5079C14.4359 23.4599 14.6519 23.4359 14.7959 23.4359C14.8919 23.4359 14.9399 23.4599 14.9399 23.5079C14.9399 23.7719 14.3519 23.9039 13.1759 23.9039C11.4239 23.9039 9.95994 23.4959 8.78394 22.6799C7.43994 21.7439 6.76794 20.4479 6.76794 18.7919C6.76794 13.2719 11.5439 9.21593 21.0959 6.62393C21.1439 6.07193 21.1799 5.47193 21.2039 4.82393C21.2519 4.15193 21.2759 3.44393 21.2759 2.69993C21.2759 2.55593 21.3479 2.47193 21.4919 2.44793C21.6359 2.47193 21.7079 3.16793 21.7079 4.53593C21.7079 4.84793 21.6959 5.17193 21.6719 5.50793C21.6719 5.81993 21.6599 6.14393 21.6359 6.47993L24.8399 5.72393C25.1519 4.97993 25.4639 4.35593 25.7759 3.85193C26.0879 3.32393 26.3999 2.92793 26.7119 2.66393C27.5279 2.03993 28.6679 1.72793 30.1319 1.72793C30.8279 1.72793 31.4639 1.87193 32.0399 2.15993C32.7359 2.51993 33.0839 3.01193 33.0839 3.63593C33.0839 4.40393 32.5079 4.89593 31.3559 5.11193L27.0359 5.86793C26.4599 7.69193 25.8839 9.50393 25.3079 11.3039C24.7319 13.1039 24.1679 14.9039 23.6159 16.7039C22.1519 20.9039 20.5319 24.3239 18.7559 26.9639C16.4759 30.3239 13.7399 32.8679 10.5479 34.5959C9.34794 35.2199 8.09994 35.5319 6.80394 35.5319ZM27.3599 5.29193C27.8879 5.24393 28.5239 5.14793 29.2679 5.00393C30.0119 4.85993 30.8639 4.67993 31.8239 4.46393C32.4719 4.19993 32.7959 3.85193 32.7959 3.41993C32.7959 2.57993 32.1119 2.15993 30.7439 2.15993C29.6159 2.15993 28.4879 3.20393 27.3599 5.29193ZM30.0214 34.7039C29.7814 34.7039 29.6614 34.6199 29.6614 34.4519C29.6614 34.3079 29.7454 34.2239 29.9134 34.1999C30.1054 34.1759 30.3814 34.1039 30.7414 33.9839C31.8934 33.5039 33.0454 32.2799 34.1974 30.3119C31.5814 30.2399 29.5414 29.5439 28.0774 28.2239C26.5174 26.8079 25.7374 24.8159 25.7374 22.2479C25.7374 19.1999 26.8534 16.0919 29.0854 12.9239C31.2214 9.92393 33.7174 7.69193 36.5734 6.22793C35.9014 6.15593 35.3614 6.11993 34.9534 6.11993C34.4734 6.11993 33.9694 6.15593 33.4414 6.22793C32.9374 6.27593 32.4214 6.35993 31.8934 6.47993C30.5494 6.79193 29.3494 7.25993 28.2934 7.88393C26.8294 8.74793 26.0974 9.70793 26.0974 10.7639C26.0974 10.8839 26.1094 10.9799 26.1334 11.0519V11.3399C26.1334 11.6759 26.0254 11.8439 25.8094 11.8439C25.4974 11.8439 25.2574 11.6159 25.0894 11.1599C24.9214 10.8239 24.8374 10.4759 24.8374 10.1159C24.8374 8.62793 26.1694 7.47593 28.8334 6.65993C30.7774 6.08393 32.7334 5.79593 34.7014 5.79593C35.0134 5.79593 35.3734 5.81993 35.7814 5.86793C36.1894 5.89193 36.6334 5.92793 37.1134 5.97593C37.7134 5.71193 38.3134 5.47193 38.9134 5.25593C39.5134 5.03993 40.1134 4.85993 40.7134 4.71593C40.7374 4.30793 40.7494 3.92393 40.7494 3.56393C40.7494 3.17993 40.7494 2.81993 40.7494 2.48393C40.7494 2.24393 40.7374 1.88393 40.7134 1.40393C40.6894 0.89993 40.6774 0.52793 40.6774 0.28793C40.6774 0.0959299 40.7374 -7.03335e-05 40.8574 -7.03335e-05C40.9054 -7.03335e-05 40.9534 0.0599296 41.0014 0.179929C41.1934 0.875931 41.2894 1.84793 41.2894 3.09593C41.2894 3.33593 41.2894 3.58793 41.2894 3.85193C41.2894 4.09193 41.2774 4.34393 41.2534 4.60793C41.7334 4.51193 42.2014 4.43993 42.6574 4.39193C43.1134 4.34393 43.5574 4.31993 43.9894 4.31993C46.2694 4.31993 48.0694 4.91993 49.3894 6.11993C50.7334 7.29593 51.4054 8.98793 51.4054 11.1959V11.3759C51.4054 11.7839 51.2374 11.9879 50.9014 11.9879C50.7094 11.9879 50.4814 11.9159 50.2174 11.7719C49.1134 11.0999 48.1894 10.5599 47.4454 10.1519C46.7254 9.71993 46.1734 9.40793 45.7894 9.21593C44.9734 8.78393 44.1694 8.39993 43.3774 8.06393C42.5854 7.72793 41.8054 7.43993 41.0374 7.19993C40.9174 8.35193 40.7494 9.55193 40.5334 10.7999C40.3174 12.0239 40.0774 13.2959 39.8134 14.6159C40.1974 14.3039 40.5214 14.1479 40.7854 14.1479C41.0494 14.1479 41.1814 14.3039 41.1814 14.6159C41.1814 15.1199 40.9534 15.6839 40.4974 16.3079C40.0174 16.9319 39.5614 17.3639 39.1294 17.6039C38.5774 19.8599 37.9774 21.9359 37.3294 23.8319C36.7054 25.7039 36.0334 27.3839 35.3134 28.8719C35.4814 28.8959 35.6374 28.9079 35.7814 28.9079C35.9494 28.9079 36.1174 28.9079 36.2854 28.9079C39.1174 28.9079 41.8894 28.2119 44.6014 26.8199C47.4334 25.4279 49.5934 23.5679 51.0814 21.2399C51.2734 20.9519 51.3934 20.8079 51.4414 20.8079C51.4654 20.8319 51.4774 20.8679 51.4774 20.9159C51.4774 21.1079 51.4294 21.2879 51.3334 21.4559C49.8454 23.9759 47.4214 26.0999 44.0614 27.8279C40.8214 29.4359 37.6654 30.2639 34.5934 30.3119C32.9614 33.2399 31.4374 34.7039 30.0214 34.7039ZM49.9294 9.89993C50.1214 9.89993 50.2174 9.76793 50.2174 9.50393C50.2174 9.23993 50.1334 8.95193 49.9654 8.63993C49.3654 7.51193 48.2854 6.64793 46.7254 6.04793C45.4294 5.51993 44.0374 5.25593 42.5494 5.25593C42.3094 5.25593 42.0814 5.26793 41.8654 5.29193C41.6494 5.29193 41.4214 5.30393 41.1814 5.32793L41.0734 6.62393C42.5134 6.93593 43.9294 7.34393 45.3214 7.84793C46.7374 8.35193 48.1174 8.97593 49.4614 9.71993C49.6534 9.83993 49.8094 9.89993 49.9294 9.89993ZM40.5694 6.51593L40.6414 5.36393C39.6814 5.50793 38.7694 5.74793 37.9054 6.08393L40.5694 6.51593ZM34.9534 28.8359C35.6974 27.3479 36.3814 25.6559 37.0054 23.7599C37.6534 21.8399 38.2414 19.7279 38.7694 17.4239C38.1214 16.5839 37.7974 15.7439 37.7974 14.9039C37.7974 14.1359 38.0014 13.7519 38.4094 13.7519C38.7454 13.7519 39.0574 14.0759 39.3454 14.7239C39.8974 12.0119 40.2934 9.45593 40.5334 7.05593C40.0054 6.88793 39.4654 6.75593 38.9134 6.65993C38.3854 6.53993 37.8454 6.43193 37.2934 6.33593C34.5574 7.60793 32.3014 9.63593 30.5254 12.4199C28.7254 15.2279 27.8254 18.1319 27.8254 21.1319C27.8254 23.3879 28.4494 25.1879 29.6974 26.5319C30.9454 27.8519 32.6974 28.6199 34.9534 28.8359ZM54.4221 31.0319C53.5101 31.0319 52.6101 30.7199 51.7221 30.0959C50.7621 29.4239 50.2821 28.6319 50.2821 27.7199C50.2821 26.5919 50.8701 25.7399 52.0461 25.1639C52.9341 24.7079 54.0141 24.4799 55.2861 24.4799C55.9581 24.4799 56.6661 24.5399 57.4101 24.6599C58.1541 24.7799 58.9461 24.9599 59.7861 25.1999C61.5381 23.0879 63.0741 20.4239 64.3941 17.2079C64.2261 16.6559 64.0941 16.1759 63.9981 15.7679C63.9261 15.3359 63.8901 14.9639 63.8901 14.6519C63.8901 13.7879 64.0581 13.3559 64.3941 13.3559C64.7781 13.3559 65.1141 13.7399 65.4021 14.5079C66.2661 12.8039 67.1301 9.86393 67.9941 5.68793C63.0021 5.85593 59.1741 7.30793 56.5101 10.0439C55.5501 11.0039 55.0701 12.0959 55.0701 13.3199C55.0701 14.2799 55.3941 15.1559 56.0421 15.9479C56.6181 16.6679 57.3861 17.2199 58.3461 17.6039C58.4901 17.6519 58.6821 17.7119 58.9221 17.7839C59.1621 17.8559 59.4381 17.9279 59.7501 17.9999C59.8941 18.0239 59.9661 18.0719 59.9661 18.1439C59.9661 18.2639 59.8821 18.3239 59.7141 18.3239L59.6061 18.2879C58.1181 18.1679 56.7261 17.5559 55.4301 16.4519C54.0141 15.2519 53.3061 13.9319 53.3061 12.4919C53.3061 11.4119 53.7501 10.4279 54.6381 9.53993C56.1501 7.97993 58.2501 6.82793 60.9381 6.08393C63.1701 5.43593 65.5701 5.11193 68.1381 5.11193C68.1861 4.60793 68.2581 4.09193 68.3541 3.56393C68.4741 3.01193 68.6061 2.45993 68.7501 1.90793C68.8461 1.93193 68.8941 2.20793 68.8941 2.73593C68.8941 3.04793 68.8701 3.40793 68.8221 3.81593C68.7741 4.19993 68.7021 4.63193 68.6061 5.11193C69.5181 5.13593 70.4061 5.19593 71.2701 5.29193C72.1581 5.36393 73.0101 5.49593 73.8261 5.68793C75.2901 4.34393 76.7781 3.67193 78.2901 3.67193C79.1781 3.67193 79.9221 3.98393 80.5221 4.60793C81.1221 5.23193 81.4221 5.98793 81.4221 6.87593C81.4221 7.21193 81.3621 7.37993 81.2421 7.37993C81.1461 7.37993 81.0621 7.04393 80.9901 6.37193C80.8461 5.29193 80.0661 4.75193 78.6501 4.75193C77.6901 4.75193 76.6461 5.20793 75.5181 6.11993C77.0061 6.57593 78.2781 7.22393 79.3341 8.06393C80.6541 9.09593 81.3141 10.2839 81.3141 11.6279C81.3141 13.2599 80.3781 14.5439 78.5061 15.4799C77.0661 16.2239 75.4341 16.6439 73.6101 16.7399C78.5781 19.0439 81.0621 21.7679 81.0621 24.9119C81.0621 26.3999 80.4381 27.6479 79.1901 28.6559C77.9661 29.6639 76.5861 30.1679 75.0501 30.1679C72.7461 30.1679 70.7061 29.8799 68.9301 29.3039L63.2421 26.9639C62.5701 27.7559 61.9101 28.4159 61.2621 28.9439C60.6381 29.4959 60.0141 29.9039 59.3901 30.1679C58.1661 30.7439 56.5101 31.0319 54.4221 31.0319ZM62.1621 25.9919C63.1461 24.9119 64.2621 23.0399 65.5101 20.3759C66.0861 19.1279 66.6621 17.8919 67.2381 16.6679C67.8141 15.4199 68.4021 14.1719 69.0021 12.9239C69.7701 11.3879 70.5141 10.0559 71.2341 8.92793C71.9781 7.79993 72.6981 6.86393 73.3941 6.11993C71.8581 5.83193 70.3221 5.68793 68.7861 5.68793H68.4981C67.9941 8.01593 67.1661 10.8599 66.0141 14.2199C66.3501 14.0279 66.6021 13.9319 66.7701 13.9319C66.9621 13.9319 67.0581 14.0519 67.0581 14.2919C67.0581 14.9639 66.2781 16.0199 64.7181 17.4599C64.0461 18.9959 63.3261 20.4239 62.5581 21.7439C61.8141 23.0399 60.9981 24.2279 60.1101 25.3079C60.4461 25.4039 60.7821 25.5119 61.1181 25.6319C61.4781 25.7519 61.8261 25.8719 62.1621 25.9919ZM74.7981 29.4119C78.0381 29.4119 79.6581 28.3079 79.6581 26.0999C79.6581 23.1479 77.6541 20.6999 73.6461 18.7559C73.4061 18.6599 73.1061 18.5399 72.7461 18.3959C72.3861 18.2279 71.9661 18.0359 71.4861 17.8199C71.4141 17.7719 71.3781 17.6519 71.3781 17.4599C71.3781 16.7879 71.7261 16.3799 72.4221 16.2359H73.1421C73.3581 16.2119 73.5741 16.1879 73.7901 16.1639C74.0061 16.1399 74.2101 16.1159 74.4021 16.0919C75.8181 15.8279 76.9701 15.3479 77.8581 14.6519C78.9621 13.8359 79.5141 12.7799 79.5141 11.4839C79.5141 10.3079 79.0461 9.25193 78.1101 8.31593C77.2941 7.54793 76.2741 6.95993 75.0501 6.55193C73.6101 7.87193 72.2301 9.87593 70.9101 12.5639L67.5621 19.9079C66.2421 22.7639 64.9461 24.9479 63.6741 26.4599L69.1101 28.4039C71.1501 29.0759 73.0461 29.4119 74.7981 29.4119ZM54.6741 30.2039C55.9221 30.2039 57.2541 29.8319 58.6701 29.0879C60.1341 28.3439 61.1901 27.4799 61.8381 26.4959C61.5261 26.3279 61.2021 26.1719 60.8661 26.0279C60.5541 25.8839 60.2061 25.7519 59.8221 25.6319C58.4061 27.3359 57.1821 28.1879 56.1501 28.1879C55.6461 28.1879 55.3941 28.0439 55.3941 27.7559C55.3941 27.6359 55.4661 27.5759 55.6101 27.5759C55.6581 27.5759 55.7541 27.5879 55.8981 27.6119C56.0421 27.6599 56.1501 27.6839 56.2221 27.6839C57.1341 27.6839 58.2261 26.9759 59.4981 25.5599C57.9621 25.0559 56.4981 24.8039 55.1061 24.8039C54.1221 24.8039 53.2341 24.9719 52.4421 25.3079C51.4341 25.7399 50.9301 26.4119 50.9301 27.3239C50.9301 28.1879 51.3501 28.8959 52.1901 29.4479C52.9581 29.9519 53.7861 30.2039 54.6741 30.2039ZM86.6837 27.5039C84.9797 27.5039 84.1277 26.3999 84.1277 24.1919C84.1277 23.8559 84.1397 23.4959 84.1637 23.1119C84.2117 22.7039 84.2837 22.2719 84.3797 21.8159C84.2837 21.7439 84.1877 21.6479 84.0917 21.5279C83.9957 21.3839 83.8997 21.2159 83.8037 21.0239C83.8997 21.0479 83.9957 21.0959 84.0917 21.1679C84.2117 21.2159 84.3557 21.2639 84.5237 21.3119C84.7877 20.1119 85.5077 18.9239 86.6837 17.7479C87.9557 16.4519 89.1557 15.8039 90.2837 15.8039C90.5477 15.8039 90.6797 15.8399 90.6797 15.9119C90.6797 15.9599 90.5117 16.0799 90.1757 16.2719C89.2877 16.7519 88.4477 17.4959 87.6557 18.5039C86.8637 19.5359 86.2877 20.5439 85.9277 21.5279L85.9997 21.5999C87.1517 21.5999 88.3517 21.0479 89.5997 19.9439C90.8477 18.8399 91.4717 17.7119 91.4717 16.5599C91.4717 16.1999 91.3757 15.8759 91.1837 15.5879C90.9917 15.2999 90.7277 15.1559 90.3917 15.1559C89.9117 15.1559 89.3717 15.3479 88.7717 15.7319C88.1717 16.0919 87.8357 16.2719 87.7637 16.2719C87.7157 16.2719 87.6917 16.2599 87.6917 16.2359C87.6917 15.9479 88.1117 15.6359 88.9517 15.2999C89.6717 15.0119 90.2357 14.8679 90.6437 14.8679C91.1957 14.8679 91.6517 15.0239 92.0117 15.3359C92.3957 15.6479 92.5877 16.0799 92.5877 16.6319C92.5877 17.9039 91.7597 19.1399 90.1037 20.3399C88.6157 21.3959 87.1757 21.9839 85.7837 22.1039C85.5917 22.6799 85.4957 23.2319 85.4957 23.7599C85.4957 25.7519 86.2157 26.7479 87.6557 26.7479C88.7597 26.7479 89.9117 26.2679 91.1117 25.3079C92.1197 24.5159 92.9597 23.5559 93.6317 22.4279C93.8477 22.0919 94.0277 21.9239 94.1717 21.9239C94.1957 21.9239 94.2077 21.9479 94.2077 21.9959C94.2077 22.0919 94.1117 22.3079 93.9197 22.6439C93.1757 23.8199 92.1317 24.8999 90.7877 25.8839C89.3237 26.9639 87.9557 27.5039 86.6837 27.5039ZM96.7249 26.8199C95.5249 26.8199 94.9249 26.2079 94.9249 24.9839C94.9249 23.6639 95.5369 21.3479 96.7609 18.0359C96.1609 18.8519 95.7409 19.2599 95.5009 19.2599C95.4289 19.2599 95.3929 19.2239 95.3929 19.1519C95.3929 19.1279 95.7049 18.7079 96.3289 17.8919C96.6409 17.4839 96.8809 17.1719 97.0489 16.9559C97.2409 16.7159 97.3489 16.5599 97.3729 16.4879C97.4929 16.1519 97.6609 15.7199 97.8769 15.1919C98.0929 14.6639 98.3449 14.0639 98.6329 13.3919C99.1609 12.1919 99.7009 10.9919 100.253 9.79193C100.805 8.56793 101.381 7.34393 101.981 6.11993C102.173 5.71193 102.413 5.21993 102.701 4.64393C103.013 4.06793 103.373 3.40793 103.781 2.66393C104.045 2.25593 104.537 2.05193 105.257 2.05193C105.689 2.05193 105.905 2.15993 105.905 2.37593C105.905 2.44793 105.893 2.50793 105.869 2.55593L103.925 6.87593L103.133 8.60393C102.965 8.69993 102.749 8.87993 102.485 9.14393C102.485 9.14393 102.353 9.39593 102.089 9.89993C101.849 10.4039 101.465 11.1479 100.937 12.1319C97.5529 18.7079 95.8609 23.0039 95.8609 25.0199C95.8609 25.8119 96.1249 26.2079 96.6529 26.2079C97.2529 26.2079 97.9609 25.8719 98.7769 25.1999C99.6169 24.5039 100.013 24.1559 99.9649 24.1559C100.061 24.1559 100.109 24.2039 100.109 24.2999C100.109 24.3959 100.061 24.4919 99.9649 24.5879C98.9089 26.0759 97.8289 26.8199 96.7249 26.8199ZM102.596 26.8199C101.396 26.8199 100.796 26.2079 100.796 24.9839C100.796 23.6639 101.408 21.3479 102.632 18.0359C102.032 18.8519 101.612 19.2599 101.372 19.2599C101.3 19.2599 101.264 19.2239 101.264 19.1519C101.264 19.1279 101.576 18.7079 102.2 17.8919C102.512 17.4839 102.752 17.1719 102.92 16.9559C103.112 16.7159 103.22 16.5599 103.244 16.4879C103.364 16.1519 103.532 15.7199 103.748 15.1919C103.964 14.6639 104.216 14.0639 104.504 13.3919C105.032 12.1919 105.572 10.9919 106.124 9.79193C106.676 8.56793 107.252 7.34393 107.852 6.11993C108.044 5.71193 108.284 5.21993 108.572 4.64393C108.884 4.06793 109.244 3.40793 109.652 2.66393C109.916 2.25593 110.408 2.05193 111.128 2.05193C111.56 2.05193 111.776 2.15993 111.776 2.37593C111.776 2.44793 111.764 2.50793 111.74 2.55593L109.796 6.87593L109.004 8.60393C108.836 8.69993 108.62 8.87993 108.356 9.14393C108.356 9.14393 108.224 9.39593 107.96 9.89993C107.72 10.4039 107.336 11.1479 106.808 12.1319C103.424 18.7079 101.732 23.0039 101.732 25.0199C101.732 25.8119 101.996 26.2079 102.524 26.2079C103.124 26.2079 103.832 25.8719 104.648 25.1999C105.488 24.5039 105.884 24.1559 105.836 24.1559C105.932 24.1559 105.98 24.2039 105.98 24.2999C105.98 24.3959 105.932 24.4919 105.836 24.5879C104.78 26.0759 103.7 26.8199 102.596 26.8199ZM109.043 27.5039C107.339 27.5039 106.487 26.3999 106.487 24.1919C106.487 23.8559 106.499 23.4959 106.523 23.1119C106.571 22.7039 106.643 22.2719 106.739 21.8159C106.643 21.7439 106.547 21.6479 106.451 21.5279C106.355 21.3839 106.259 21.2159 106.163 21.0239C106.259 21.0479 106.355 21.0959 106.451 21.1679C106.571 21.2159 106.715 21.2639 106.883 21.3119C107.147 20.1119 107.867 18.9239 109.043 17.7479C110.315 16.4519 111.515 15.8039 112.643 15.8039C112.907 15.8039 113.039 15.8399 113.039 15.9119C113.039 15.9599 112.871 16.0799 112.535 16.2719C111.647 16.7519 110.807 17.4959 110.015 18.5039C109.223 19.5359 108.647 20.5439 108.287 21.5279L108.359 21.5999C109.511 21.5999 110.711 21.0479 111.959 19.9439C113.207 18.8399 113.831 17.7119 113.831 16.5599C113.831 16.1999 113.735 15.8759 113.543 15.5879C113.351 15.2999 113.087 15.1559 112.751 15.1559C112.271 15.1559 111.731 15.3479 111.131 15.7319C110.531 16.0919 110.195 16.2719 110.123 16.2719C110.075 16.2719 110.051 16.2599 110.051 16.2359C110.051 15.9479 110.471 15.6359 111.311 15.2999C112.031 15.0119 112.595 14.8679 113.003 14.8679C113.555 14.8679 114.011 15.0239 114.371 15.3359C114.755 15.6479 114.947 16.0799 114.947 16.6319C114.947 17.9039 114.119 19.1399 112.463 20.3399C110.975 21.3959 109.535 21.9839 108.143 22.1039C107.951 22.6799 107.855 23.2319 107.855 23.7599C107.855 25.7519 108.575 26.7479 110.015 26.7479C111.119 26.7479 112.271 26.2679 113.471 25.3079C114.479 24.5159 115.319 23.5559 115.991 22.4279C116.207 22.0919 116.387 21.9239 116.531 21.9239C116.555 21.9239 116.567 21.9479 116.567 21.9959C116.567 22.0919 116.471 22.3079 116.279 22.6439C115.535 23.8199 114.491 24.8999 113.147 25.8839C111.683 26.9639 110.315 27.5039 109.043 27.5039Z" fill="url(#paint0_linear_2069_7)"/>
<defs>
<linearGradient id="paint0_linear_2069_7" x1="61.3359" y1="-4.82007" x2="61.3359" y2="45.1799" gradientUnits="userSpaceOnUse">
<stop offset="0.1875" stop-color="#FF00FB"/>
<stop offset="0.3125" stop-color="#009BD3"/>
<stop offset="0.576923" stop-color="white"/>
</linearGradient>
</defs>
</svg>
